<mxfile host="app.diagrams.net" modified="2021-08-10T16:25:43.492Z" agent="5.0 (Windows NT 10.0; Win64; x64) AppleWebKit/537.36 (KHTML, like Gecko) Chrome/92.0.4515.131 Safari/537.36" etag="sdU9ZlFzFYCici67hMF7" version="14.9.5" type="github" pages="2">
  <diagram id="t0PIbIrAf6tK2sVx88Af" name="Page-1">
    <mxGraphModel dx="1320" dy="516" grid="0" gridSize="10" guides="1" tooltips="1" connect="1" arrows="1" fold="1" page="1" pageScale="1" pageWidth="850" pageHeight="1100" math="0" shadow="0">
      <root>
        <mxCell id="0" />
        <mxCell id="1" parent="0" />
        <UserObject label="" lucidchartObjectId="NMZ25FbBgZOl" id="184s-VsnunZbBP6fLraS-1">
          <mxCell style="html=1;overflow=block;blockSpacing=1;whiteSpace=wrap;shape=image;whiteSpace=wrap;fontSize=13;spacing=0;strokeColor=none;strokeOpacity=100;strokeWidth=0;image=https://images.lucid.app/images/2192cb51-74bd-4b02-8aee-ed8a9812a948/content;imageAspect=0;" vertex="1" parent="1">
            <mxGeometry x="730" y="455" width="280" height="190" as="geometry" />
          </mxCell>
        </UserObject>
        <UserObject label="" lucidchartObjectId="cFZ2w-V_D9Eh" id="184s-VsnunZbBP6fLraS-2">
          <mxCell style="html=1;overflow=block;blockSpacing=1;whiteSpace=wrap;shape=image;whiteSpace=wrap;fontSize=13;spacing=0;strokeColor=none;strokeOpacity=100;strokeWidth=0;image=https://images.lucid.app/images/cfad7acc-1f51-491f-9642-2c621479e58b/content;imageAspect=0;" vertex="1" parent="1">
            <mxGeometry x="1065" y="450" width="210" height="190" as="geometry" />
          </mxCell>
        </UserObject>
        <UserObject label="" lucidchartObjectId="8HZ2BCLk3Pqq" id="184s-VsnunZbBP6fLraS-3">
          <mxCell style="html=1;overflow=block;blockSpacing=1;whiteSpace=wrap;shape=image;whiteSpace=wrap;fontSize=13;spacing=0;strokeColor=none;strokeOpacity=100;strokeWidth=0;image=https://images.lucid.app/images/14793bac-6078-4461-8092-26c5c963099f/content;imageAspect=0;" vertex="1" parent="1">
            <mxGeometry x="1160" y="340" width="110" height="85" as="geometry" />
          </mxCell>
        </UserObject>
        <UserObject label="" lucidchartObjectId="rKZ2_vSLOEgD" id="184s-VsnunZbBP6fLraS-4">
          <mxCell style="html=1;overflow=block;blockSpacing=1;whiteSpace=wrap;shape=image;whiteSpace=wrap;fontSize=13;spacing=0;strokeColor=none;strokeOpacity=100;strokeWidth=0;image=https://images.lucid.app/images/ae462401-679d-4ec5-8056-e26d8d3178b4/content;imageAspect=0;" vertex="1" parent="1">
            <mxGeometry x="860" y="324" width="240" height="93" as="geometry" />
          </mxCell>
        </UserObject>
        <UserObject label="" lucidchartObjectId="jJZ2hEAawC_c" id="184s-VsnunZbBP6fLraS-5">
          <mxCell style="html=1;overflow=block;blockSpacing=1;whiteSpace=wrap;shape=image;whiteSpace=wrap;fontSize=13;spacing=0;strokeColor=none;strokeOpacity=100;strokeWidth=0;image=https://images.lucid.app/images/36ad5536-093b-4fc5-b8df-cc57e0dbc11e/content;imageAspect=0;" vertex="1" parent="1">
            <mxGeometry x="690" y="324" width="131" height="85" as="geometry" />
          </mxCell>
        </UserObject>
        <UserObject label="" lucidchartObjectId="vsZ2riCK0Opv" id="184s-VsnunZbBP6fLraS-8">
          <mxCell style="html=1;overflow=block;blockSpacing=1;whiteSpace=wrap;shape=image;whiteSpace=wrap;fontSize=13;spacing=0;strokeColor=none;strokeOpacity=100;strokeWidth=0;image=https://images.lucid.app/images/14869f68-87ea-4f9a-aa98-34db152b3aae/content;imageAspect=0;" vertex="1" parent="1">
            <mxGeometry x="425" y="675" width="240" height="180" as="geometry" />
          </mxCell>
        </UserObject>
        <UserObject label="" lucidchartObjectId="jtZ2kzdl7No7" id="184s-VsnunZbBP6fLraS-9">
          <mxCell style="html=1;overflow=block;blockSpacing=1;whiteSpace=wrap;shape=image;whiteSpace=wrap;fontSize=13;spacing=0;strokeColor=none;strokeOpacity=100;strokeWidth=0;image=https://images.lucid.app/images/04d1b4bd-5117-4573-98c4-9c9b5fc9cd3b/content;imageAspect=0;" vertex="1" parent="1">
            <mxGeometry x="748.5" y="690" width="243" height="150" as="geometry" />
          </mxCell>
        </UserObject>
        <UserObject label="" lucidchartObjectId="6CZ2bsvOzn~M" id="184s-VsnunZbBP6fLraS-10">
          <mxCell style="html=1;overflow=block;blockSpacing=1;whiteSpace=wrap;shape=image;whiteSpace=wrap;fontSize=13;spacing=0;strokeColor=none;strokeOpacity=100;strokeWidth=0;image=https://images.lucid.app/images/a2d4ea0a-b8fd-47e0-895b-a05b4541f13d/content;imageAspect=0;" vertex="1" parent="1">
            <mxGeometry x="1070" y="690" width="180" height="150" as="geometry" />
          </mxCell>
        </UserObject>
        <UserObject label="" lucidchartObjectId="cFZ2w-V_D9Eh" id="184s-VsnunZbBP6fLraS-11">
          <mxCell style="html=1;overflow=block;blockSpacing=1;whiteSpace=wrap;shape=image;whiteSpace=wrap;fontSize=13;spacing=0;strokeColor=none;strokeOpacity=100;strokeWidth=0;image=https://images.lucid.app/images/cfad7acc-1f51-491f-9642-2c621479e58b/content;imageAspect=0;" vertex="1" parent="1">
            <mxGeometry x="450" y="450" width="210" height="190" as="geometry" />
          </mxCell>
        </UserObject>
        <UserObject label="" lucidchartObjectId="8HZ2BCLk3Pqq" id="184s-VsnunZbBP6fLraS-12">
          <mxCell style="html=1;overflow=block;blockSpacing=1;whiteSpace=wrap;shape=image;whiteSpace=wrap;fontSize=13;spacing=0;strokeColor=none;strokeOpacity=100;strokeWidth=0;image=https://images.lucid.app/images/14793bac-6078-4461-8092-26c5c963099f/content;imageAspect=0;" vertex="1" parent="1">
            <mxGeometry x="450" y="340" width="110" height="85" as="geometry" />
          </mxCell>
        </UserObject>
        <mxCell id="184s-VsnunZbBP6fLraS-13" value="" style="endArrow=none;dashed=1;html=1;" edge="1" parent="1">
          <mxGeometry width="50" height="50" relative="1" as="geometry">
            <mxPoint x="720" y="645" as="sourcePoint" />
            <mxPoint x="1020" y="645" as="targetPoint" />
          </mxGeometry>
        </mxCell>
        <mxCell id="184s-VsnunZbBP6fLraS-14" value="" style="endArrow=none;dashed=1;html=1;" edge="1" parent="1">
          <mxGeometry width="50" height="50" relative="1" as="geometry">
            <mxPoint x="720" y="455" as="sourcePoint" />
            <mxPoint x="1010" y="455" as="targetPoint" />
          </mxGeometry>
        </mxCell>
        <mxCell id="184s-VsnunZbBP6fLraS-15" value="" style="endArrow=none;dashed=1;html=1;dashPattern=1 3;strokeWidth=2;" edge="1" parent="1">
          <mxGeometry width="50" height="50" relative="1" as="geometry">
            <mxPoint x="720" y="640" as="sourcePoint" />
            <mxPoint x="720" y="450" as="targetPoint" />
          </mxGeometry>
        </mxCell>
        <mxCell id="184s-VsnunZbBP6fLraS-16" value="" style="endArrow=none;dashed=1;html=1;dashPattern=1 3;strokeWidth=2;exitX=1;exitY=1;exitDx=0;exitDy=0;" edge="1" parent="1" source="184s-VsnunZbBP6fLraS-1">
          <mxGeometry width="50" height="50" relative="1" as="geometry">
            <mxPoint x="800" y="620" as="sourcePoint" />
            <mxPoint x="1010" y="460" as="targetPoint" />
          </mxGeometry>
        </mxCell>
        <mxCell id="184s-VsnunZbBP6fLraS-17" value="&lt;font color=&quot;#0000cc&quot; size=&quot;1&quot;&gt;&lt;b style=&quot;font-size: 16px&quot;&gt;Bộ xử lý &lt;br&gt;trung tâm&lt;/b&gt;&lt;/font&gt;" style="text;html=1;strokeColor=none;fillColor=none;align=center;verticalAlign=middle;whiteSpace=wrap;rounded=0;" vertex="1" parent="1">
          <mxGeometry x="750" y="600" width="130" height="20" as="geometry" />
        </mxCell>
        <mxCell id="184s-VsnunZbBP6fLraS-18" value="" style="endArrow=none;dashed=1;html=1;fillColor=#008a00;strokeColor=#005700;" edge="1" parent="1">
          <mxGeometry width="50" height="50" relative="1" as="geometry">
            <mxPoint x="440" y="640" as="sourcePoint" />
            <mxPoint x="660" y="640" as="targetPoint" />
          </mxGeometry>
        </mxCell>
        <mxCell id="184s-VsnunZbBP6fLraS-19" value="" style="endArrow=none;dashed=1;html=1;fillColor=#60a917;strokeColor=#2D7600;" edge="1" parent="1">
          <mxGeometry width="50" height="50" relative="1" as="geometry">
            <mxPoint x="440" y="640" as="sourcePoint" />
            <mxPoint x="440" y="450" as="targetPoint" />
          </mxGeometry>
        </mxCell>
        <mxCell id="184s-VsnunZbBP6fLraS-20" value="" style="endArrow=none;dashed=1;html=1;fillColor=#60a917;strokeColor=#2D7600;entryX=1;entryY=0;entryDx=0;entryDy=0;" edge="1" parent="1" target="184s-VsnunZbBP6fLraS-11">
          <mxGeometry width="50" height="50" relative="1" as="geometry">
            <mxPoint x="440" y="450" as="sourcePoint" />
            <mxPoint x="680" y="660" as="targetPoint" />
          </mxGeometry>
        </mxCell>
        <mxCell id="184s-VsnunZbBP6fLraS-21" value="" style="endArrow=none;dashed=1;html=1;fillColor=#60a917;strokeColor=#2D7600;" edge="1" parent="1">
          <mxGeometry width="50" height="50" relative="1" as="geometry">
            <mxPoint x="659" y="640" as="sourcePoint" />
            <mxPoint x="659" y="450" as="targetPoint" />
          </mxGeometry>
        </mxCell>
        <mxCell id="184s-VsnunZbBP6fLraS-23" value="" style="endArrow=none;dashed=1;html=1;fillColor=#60a917;strokeColor=#2D7600;" edge="1" parent="1">
          <mxGeometry width="50" height="50" relative="1" as="geometry">
            <mxPoint x="1060" y="640" as="sourcePoint" />
            <mxPoint x="1060" y="450" as="targetPoint" />
          </mxGeometry>
        </mxCell>
        <mxCell id="184s-VsnunZbBP6fLraS-24" value="" style="endArrow=none;dashed=1;html=1;fillColor=#008a00;strokeColor=#005700;" edge="1" parent="1">
          <mxGeometry width="50" height="50" relative="1" as="geometry">
            <mxPoint x="1060" y="639" as="sourcePoint" />
            <mxPoint x="1280" y="639" as="targetPoint" />
          </mxGeometry>
        </mxCell>
        <mxCell id="184s-VsnunZbBP6fLraS-25" value="" style="endArrow=none;dashed=1;html=1;fillColor=#60a917;strokeColor=#2D7600;" edge="1" parent="1">
          <mxGeometry width="50" height="50" relative="1" as="geometry">
            <mxPoint x="1280" y="640" as="sourcePoint" />
            <mxPoint x="1280" y="450" as="targetPoint" />
          </mxGeometry>
        </mxCell>
        <mxCell id="184s-VsnunZbBP6fLraS-26" value="" style="endArrow=none;dashed=1;html=1;fillColor=#008a00;strokeColor=#005700;" edge="1" parent="1">
          <mxGeometry width="50" height="50" relative="1" as="geometry">
            <mxPoint x="1060" y="449" as="sourcePoint" />
            <mxPoint x="1280" y="449" as="targetPoint" />
          </mxGeometry>
        </mxCell>
        <mxCell id="184s-VsnunZbBP6fLraS-27" value="&lt;font color=&quot;#006600&quot; size=&quot;1&quot;&gt;&lt;b style=&quot;font-size: 16px&quot;&gt;Nhận dạng biển báo&lt;/b&gt;&lt;/font&gt;" style="text;html=1;strokeColor=none;fillColor=none;align=center;verticalAlign=middle;whiteSpace=wrap;rounded=0;" vertex="1" parent="1">
          <mxGeometry x="450" y="460" width="120" height="20" as="geometry" />
        </mxCell>
        <mxCell id="184s-VsnunZbBP6fLraS-28" value="&lt;font color=&quot;#006600&quot; size=&quot;1&quot;&gt;&lt;b style=&quot;font-size: 16px&quot;&gt;Nhận dạng khuôn mặt&lt;/b&gt;&lt;/font&gt;" style="text;html=1;strokeColor=none;fillColor=none;align=center;verticalAlign=middle;whiteSpace=wrap;rounded=0;" vertex="1" parent="1">
          <mxGeometry x="1070" y="460" width="130" height="20" as="geometry" />
        </mxCell>
        <mxCell id="184s-VsnunZbBP6fLraS-29" value="" style="endArrow=classic;html=1;exitX=1;exitY=0.5;exitDx=0;exitDy=0;" edge="1" parent="1" source="184s-VsnunZbBP6fLraS-12">
          <mxGeometry width="50" height="50" relative="1" as="geometry">
            <mxPoint x="870" y="570" as="sourcePoint" />
            <mxPoint x="560" y="450" as="targetPoint" />
          </mxGeometry>
        </mxCell>
        <mxCell id="184s-VsnunZbBP6fLraS-30" value="" style="endArrow=classic;html=1;exitX=1;exitY=0.5;exitDx=0;exitDy=0;" edge="1" parent="1" source="184s-VsnunZbBP6fLraS-3">
          <mxGeometry width="50" height="50" relative="1" as="geometry">
            <mxPoint x="870" y="570" as="sourcePoint" />
            <mxPoint x="1270" y="450" as="targetPoint" />
          </mxGeometry>
        </mxCell>
        <mxCell id="184s-VsnunZbBP6fLraS-31" value="" style="endArrow=classic;html=1;" edge="1" parent="1">
          <mxGeometry width="50" height="50" relative="1" as="geometry">
            <mxPoint x="980" y="456" as="sourcePoint" />
            <mxPoint x="980" y="417" as="targetPoint" />
          </mxGeometry>
        </mxCell>
        <mxCell id="184s-VsnunZbBP6fLraS-34" value="" style="endArrow=classic;html=1;exitX=0;exitY=0;exitDx=0;exitDy=0;" edge="1" parent="1" source="184s-VsnunZbBP6fLraS-1">
          <mxGeometry width="50" height="50" relative="1" as="geometry">
            <mxPoint x="800" y="420" as="sourcePoint" />
            <mxPoint x="730" y="410" as="targetPoint" />
          </mxGeometry>
        </mxCell>
        <mxCell id="184s-VsnunZbBP6fLraS-37" value="" style="endArrow=none;dashed=1;html=1;dashPattern=1 3;strokeWidth=2;fillColor=#a20025;strokeColor=#6F0000;exitX=0;exitY=1;exitDx=0;exitDy=0;" edge="1" parent="1" source="184s-VsnunZbBP6fLraS-9">
          <mxGeometry width="50" height="50" relative="1" as="geometry">
            <mxPoint x="783" y="684.79" as="sourcePoint" />
            <mxPoint x="993" y="844.79" as="targetPoint" />
            <Array as="points">
              <mxPoint x="893" y="844.79" />
              <mxPoint x="933" y="844.79" />
            </Array>
          </mxGeometry>
        </mxCell>
        <mxCell id="184s-VsnunZbBP6fLraS-38" value="" style="endArrow=none;dashed=1;html=1;dashPattern=1 3;strokeWidth=2;fillColor=#a20025;strokeColor=#6F0000;exitX=0;exitY=0;exitDx=0;exitDy=0;entryX=1;entryY=0;entryDx=0;entryDy=0;" edge="1" parent="1">
          <mxGeometry width="50" height="50" relative="1" as="geometry">
            <mxPoint x="753" y="694.2199999999999" as="sourcePoint" />
            <mxPoint x="996" y="694.2199999999999" as="targetPoint" />
          </mxGeometry>
        </mxCell>
        <mxCell id="184s-VsnunZbBP6fLraS-39" value="" style="endArrow=none;dashed=1;html=1;dashPattern=1 3;strokeWidth=2;fillColor=#a20025;strokeColor=#6F0000;" edge="1" parent="1">
          <mxGeometry width="50" height="50" relative="1" as="geometry">
            <mxPoint x="749.43" y="847.29" as="sourcePoint" />
            <mxPoint x="749.43" y="692.29" as="targetPoint" />
          </mxGeometry>
        </mxCell>
        <mxCell id="184s-VsnunZbBP6fLraS-40" value="" style="endArrow=none;dashed=1;html=1;dashPattern=1 3;strokeWidth=2;fillColor=#a20025;strokeColor=#6F0000;" edge="1" parent="1">
          <mxGeometry width="50" height="50" relative="1" as="geometry">
            <mxPoint x="993" y="845.79" as="sourcePoint" />
            <mxPoint x="993" y="694.79" as="targetPoint" />
          </mxGeometry>
        </mxCell>
        <mxCell id="184s-VsnunZbBP6fLraS-41" value="&lt;font color=&quot;#ff0000&quot; size=&quot;1&quot;&gt;&lt;b style=&quot;font-size: 16px&quot;&gt;Khối đo tốc độ&lt;/b&gt;&lt;/font&gt;" style="text;html=1;strokeColor=none;fillColor=none;align=center;verticalAlign=middle;whiteSpace=wrap;rounded=0;" vertex="1" parent="1">
          <mxGeometry x="760" y="710" width="80" height="20" as="geometry" />
        </mxCell>
        <mxCell id="184s-VsnunZbBP6fLraS-42" value="" style="endArrow=none;dashed=1;html=1;fillColor=#e3c800;strokeColor=#B09500;" edge="1" parent="1">
          <mxGeometry width="50" height="50" relative="1" as="geometry">
            <mxPoint x="1070" y="840" as="sourcePoint" />
            <mxPoint x="1070" y="680" as="targetPoint" />
          </mxGeometry>
        </mxCell>
        <mxCell id="184s-VsnunZbBP6fLraS-43" value="" style="endArrow=none;dashed=1;html=1;fillColor=#e3c800;strokeColor=#B09500;" edge="1" parent="1">
          <mxGeometry width="50" height="50" relative="1" as="geometry">
            <mxPoint x="1250" y="840" as="sourcePoint" />
            <mxPoint x="1250" y="680" as="targetPoint" />
          </mxGeometry>
        </mxCell>
        <mxCell id="184s-VsnunZbBP6fLraS-44" value="" style="endArrow=none;dashed=1;html=1;fillColor=#e3c800;strokeColor=#B09500;" edge="1" parent="1">
          <mxGeometry width="50" height="50" relative="1" as="geometry">
            <mxPoint x="1070" y="840" as="sourcePoint" />
            <mxPoint x="1250" y="840" as="targetPoint" />
          </mxGeometry>
        </mxCell>
        <mxCell id="184s-VsnunZbBP6fLraS-45" value="" style="endArrow=none;dashed=1;html=1;fillColor=#e3c800;strokeColor=#B09500;" edge="1" parent="1">
          <mxGeometry width="50" height="50" relative="1" as="geometry">
            <mxPoint x="1070" y="680" as="sourcePoint" />
            <mxPoint x="1250" y="680" as="targetPoint" />
          </mxGeometry>
        </mxCell>
        <mxCell id="184s-VsnunZbBP6fLraS-46" value="&lt;font color=&quot;#994c00&quot; size=&quot;1&quot;&gt;&lt;b style=&quot;font-size: 16px&quot;&gt;Khối định vị GPS&lt;/b&gt;&lt;/font&gt;" style="text;html=1;strokeColor=none;fillColor=none;align=center;verticalAlign=middle;whiteSpace=wrap;rounded=0;" vertex="1" parent="1">
          <mxGeometry x="1070" y="690" width="80" height="20" as="geometry" />
        </mxCell>
        <mxCell id="184s-VsnunZbBP6fLraS-48" value="" style="endArrow=none;dashed=1;html=1;fillColor=#e3c800;strokeColor=#B09500;" edge="1" parent="1">
          <mxGeometry width="50" height="50" relative="1" as="geometry">
            <mxPoint x="430" y="840" as="sourcePoint" />
            <mxPoint x="430" y="680" as="targetPoint" />
          </mxGeometry>
        </mxCell>
        <mxCell id="184s-VsnunZbBP6fLraS-49" value="" style="endArrow=none;dashed=1;html=1;fillColor=#e3c800;strokeColor=#B09500;" edge="1" parent="1">
          <mxGeometry width="50" height="50" relative="1" as="geometry">
            <mxPoint x="430" y="840" as="sourcePoint" />
            <mxPoint x="670" y="840" as="targetPoint" />
          </mxGeometry>
        </mxCell>
        <mxCell id="184s-VsnunZbBP6fLraS-50" value="" style="endArrow=none;dashed=1;html=1;fillColor=#e3c800;strokeColor=#B09500;entryX=1;entryY=0;entryDx=0;entryDy=0;" edge="1" parent="1" target="184s-VsnunZbBP6fLraS-8">
          <mxGeometry width="50" height="50" relative="1" as="geometry">
            <mxPoint x="430" y="675" as="sourcePoint" />
            <mxPoint x="610" y="675" as="targetPoint" />
          </mxGeometry>
        </mxCell>
        <mxCell id="184s-VsnunZbBP6fLraS-51" value="" style="endArrow=none;dashed=1;html=1;fillColor=#e3c800;strokeColor=#B09500;" edge="1" parent="1">
          <mxGeometry width="50" height="50" relative="1" as="geometry">
            <mxPoint x="665" y="840" as="sourcePoint" />
            <mxPoint x="665" y="680" as="targetPoint" />
          </mxGeometry>
        </mxCell>
        <mxCell id="184s-VsnunZbBP6fLraS-52" value="&lt;font color=&quot;#cc6600&quot; size=&quot;1&quot;&gt;&lt;b style=&quot;font-size: 16px&quot;&gt;Khối cảnh báo&lt;/b&gt;&lt;/font&gt;" style="text;html=1;strokeColor=none;fillColor=none;align=center;verticalAlign=middle;whiteSpace=wrap;rounded=0;" vertex="1" parent="1">
          <mxGeometry x="430" y="710" width="80" height="60" as="geometry" />
        </mxCell>
        <mxCell id="184s-VsnunZbBP6fLraS-56" value="" style="endArrow=classic;html=1;exitX=1;exitY=0.5;exitDx=0;exitDy=0;" edge="1" parent="1" source="184s-VsnunZbBP6fLraS-11">
          <mxGeometry relative="1" as="geometry">
            <mxPoint x="850" y="610" as="sourcePoint" />
            <mxPoint x="720" y="545" as="targetPoint" />
          </mxGeometry>
        </mxCell>
        <mxCell id="184s-VsnunZbBP6fLraS-57" value="GPIO" style="edgeLabel;resizable=0;html=1;align=center;verticalAlign=middle;" connectable="0" vertex="1" parent="184s-VsnunZbBP6fLraS-56">
          <mxGeometry relative="1" as="geometry" />
        </mxCell>
        <mxCell id="184s-VsnunZbBP6fLraS-59" value="" style="endArrow=classic;html=1;" edge="1" parent="1">
          <mxGeometry relative="1" as="geometry">
            <mxPoint x="1060" y="550" as="sourcePoint" />
            <mxPoint x="1010" y="550" as="targetPoint" />
          </mxGeometry>
        </mxCell>
        <mxCell id="184s-VsnunZbBP6fLraS-60" value="GPIO" style="edgeLabel;resizable=0;html=1;align=center;verticalAlign=middle;" connectable="0" vertex="1" parent="184s-VsnunZbBP6fLraS-59">
          <mxGeometry relative="1" as="geometry" />
        </mxCell>
        <mxCell id="184s-VsnunZbBP6fLraS-61" value="" style="edgeStyle=segmentEdgeStyle;endArrow=classic;html=1;exitX=1;exitY=0.5;exitDx=0;exitDy=0;" edge="1" parent="1" source="184s-VsnunZbBP6fLraS-8">
          <mxGeometry width="50" height="50" relative="1" as="geometry">
            <mxPoint x="680" y="765" as="sourcePoint" />
            <mxPoint x="730" y="645" as="targetPoint" />
            <Array as="points">
              <mxPoint x="730" y="765" />
            </Array>
          </mxGeometry>
        </mxCell>
        <mxCell id="184s-VsnunZbBP6fLraS-62" value="" style="edgeStyle=segmentEdgeStyle;endArrow=classic;html=1;" edge="1" parent="1" source="184s-VsnunZbBP6fLraS-10">
          <mxGeometry width="50" height="50" relative="1" as="geometry">
            <mxPoint x="940" y="765" as="sourcePoint" />
            <mxPoint x="1005" y="645" as="targetPoint" />
            <Array as="points">
              <mxPoint x="1005" y="765" />
            </Array>
          </mxGeometry>
        </mxCell>
        <mxCell id="184s-VsnunZbBP6fLraS-66" value="UART" style="text;html=1;strokeColor=none;fillColor=none;align=center;verticalAlign=middle;whiteSpace=wrap;rounded=0;" vertex="1" parent="1">
          <mxGeometry x="680" y="740" width="40" height="30" as="geometry" />
        </mxCell>
        <mxCell id="184s-VsnunZbBP6fLraS-68" value="UART" style="text;html=1;strokeColor=none;fillColor=none;align=center;verticalAlign=middle;whiteSpace=wrap;rounded=0;" vertex="1" parent="1">
          <mxGeometry x="1020" y="740" width="40" height="30" as="geometry" />
        </mxCell>
        <mxCell id="184s-VsnunZbBP6fLraS-69" value="" style="endArrow=classic;html=1;entryX=0.5;entryY=1;entryDx=0;entryDy=0;" edge="1" parent="1" target="184s-VsnunZbBP6fLraS-1">
          <mxGeometry width="50" height="50" relative="1" as="geometry">
            <mxPoint x="870" y="690" as="sourcePoint" />
            <mxPoint x="930" y="600" as="targetPoint" />
          </mxGeometry>
        </mxCell>
      </root>
    </mxGraphModel>
  </diagram>
  <diagram id="o8eQtw82gs99kyzLqC9l" name="Page-2">
    <mxGraphModel dx="1320" dy="516" grid="1" gridSize="10" guides="1" tooltips="1" connect="1" arrows="1" fold="1" page="1" pageScale="1" pageWidth="850" pageHeight="1100" math="0" shadow="0">
      <root>
        <mxCell id="alpcJkm2T5WWp1RKg6jF-0" />
        <mxCell id="alpcJkm2T5WWp1RKg6jF-1" parent="alpcJkm2T5WWp1RKg6jF-0" />
      </root>
    </mxGraphModel>
  </diagram>
</mxfile>
